/vscmnt/brussel_pixiu_data/_data_brussel/112/vsc11236/PredSimResults/SUBJ09mtu3D/worker2.mot
version=1
nRows=4
nColumns=50
inDegrees=yes
endheader
                time	         pelvis_tilt	         pelvis_list	     pelvis_rotation	           pelvis_tx	           pelvis_ty	           pelvis_tz	       hip_flexion_r	     hip_adduction_r	      hip_rotation_r	        knee_angle_r	       ankle_angle_r	         mtp_angle_r	       hip_flexion_l	     hip_adduction_l	      hip_rotation_l	        knee_angle_l	       ankle_angle_l	         mtp_angle_l	    lumbar_extension	      lumbar_bending	     lumbar_rotation	 ercspn_r/activation	 intobl_r/activation	 extobl_r/activation	    abd_r/activation	    add_r/activation	hamstrings_r/activation	bifemsh_r/activation	glut_max_r/activation	iliopsoas_r/activation	rect_fem_r/activation	  vasti_r/activation	gastroc_r/activation	 soleus_r/activation	tib_ant_r/activation	 ercspn_l/activation	 intobl_l/activation	 extobl_l/activation	    abd_l/activation	    add_l/activation	hamstrings_l/activation	bifemsh_l/activation	glut_max_l/activation	iliopsoas_l/activation	rect_fem_l/activation	  vasti_l/activation	gastroc_l/activation	 soleus_l/activation	tib_ant_l/activation	
          0.61037279	         -3.17963195	          1.30029873	         -6.67547503	          0.75686225	          0.98969772	          0.00496192	        -13.39934900	         -2.70582224	         -6.11281033	        -11.75423353	          7.31354318	         33.51140120	         29.07950058	         -1.13661370	         -7.55842466	         -7.98081956	          4.04912203	          0.22699802	        -14.22544792	          0.39281544	          4.33931696	          0.01126273	          0.00999999	          0.00999999	          0.02851804	          0.00999999	          0.02485362	          0.22269716	          0.01503892	          0.01586994	          0.01000002	          0.00999999	          0.18405030	          0.29311438	          0.01203456	          0.04215940	          0.15120620	          0.03037978	          0.02154091	          0.24185659	          0.05125684	          0.08937346	          0.05181797	          0.10947253	          0.01742978	          0.01108279	          0.00999999	          0.00999999	          0.29155835	
          0.62258024	         -3.18455299	          1.31796448	         -6.62731544	          0.77624792	          0.98786896	          0.00414502	        -14.20885656	         -2.90492156	         -6.57322671	        -12.21726204	          6.04188275	         35.24178272	         28.89427957	         -0.98687607	         -7.59434785	         -9.48962482	          3.71829591	          0.21563078	        -13.78876227	          0.07875108	          4.48662743	          0.04641103	          0.01000026	          0.01203456	          0.02369675	          0.01584384	          0.05536444	          0.18504779	          0.01249643	          0.01318695	          0.00999999	          0.01203456	          0.15293461	          0.26761850	          0.00999999	          0.03503189	          0.12564315	          0.02524375	          0.02310685	          0.22581555	          0.05691122	          0.07426391	          0.14384015	          0.09096501	          0.01448309	          0.01000000	          0.01741783	          0.01570240	          0.29211712	
          0.63478770	         -3.17325903	          1.36092536	         -6.55708791	          0.79602305	          0.98621725	          0.00326898	        -14.87306217	         -3.15183898	         -7.04921876	        -12.99220159	          4.66425409	         36.93980662	         28.61509990	         -0.84418532	         -7.59795823	        -11.06522930	          3.43507018	          0.20958472	        -13.31773136	         -0.26607077	          4.61434548	          0.03856475	          0.00999999	          0.00999999	          0.01969056	          0.01316527	          0.04600449	          0.15376346	          0.01038377	          0.05160801	          0.01000000	          0.00999999	          0.12707935	          0.23298237	          0.00999999	          0.02910938	          0.10440181	          0.02097602	          0.12276946	          0.23931731	          0.05196661	          0.06170879	          0.14454823	          0.07558638	          0.01203456	          0.00999999	          0.01447315	          0.01304774	          0.32838051	
          0.64699515	         -3.14886233	          1.39339580	         -6.45605662	          0.81585369	          0.98493678	          0.00229967	        -15.28726406	         -3.41827559	         -7.53559707	        -14.22698189	          3.17209013	         38.53626474	         28.35418438	         -0.71769431	         -7.63720188	        -12.65851108	          2.97218534	          0.18695736	        -12.85485635	         -0.59695429	          4.71746906	          0.07967493	          0.00999999	          0.00999999	          0.01636165	          0.01979604	          0.03822695	          0.12776808	          0.00999999	          0.04288319	          0.01000000	          0.01000000	          0.10559520	          0.19359417	          0.00999999	          0.03342686	          0.08675154	          0.01742979	          0.17265383	          0.26795785	          0.05237172	          0.05127625	          0.13846484	          0.06280768	          0.00999999	          0.06340337	          0.01202631	          0.01084188	          0.35308930	
